<svg aria-hidden="true" style="position:absolute;width:0;height:0;overflow:hidden" xmlns="http://www.w3.org/2000/svg"><defs><symbol id="icon-facebook" viewBox="0 0 17 17"><path d="M11.331 2.823h1.552V.12A19.984 19.984 0 0 0 10.622 0c-2.238 0-3.77 1.407-3.77 3.994v2.381H4.383v3.022h2.469V17h3.027V9.397h2.369l.376-3.022H9.878V4.293c.001-.873.236-1.471 1.453-1.471z"/></symbol><symbol id="icon-instagram" viewBox="0 0 17 17"><path d="M16.983 4.998c-.04-.903-.186-1.524-.395-2.062a4.153 4.153 0 0 0-.983-1.508 4.19 4.19 0 0 0-1.504-.98C13.56.239 12.942.093 12.039.053 11.129.01 10.84 0 8.532 0S5.935.01 5.028.05c-.903.04-1.524.186-2.062.395a4.153 4.153 0 0 0-1.508.983 4.19 4.19 0 0 0-.98 1.504C.269 3.473.123 4.091.083 4.994.04 5.904.03 6.193.03 8.501s.01 2.597.05 3.504c.04.903.186 1.524.395 2.062.216.571.551 1.083.983 1.508.425.432.94.767 1.504.98.541.209 1.159.355 2.062.395.907.04 1.196.05 3.504.05s2.597-.01 3.504-.05c.903-.04 1.524-.186 2.062-.395a4.353 4.353 0 0 0 2.488-2.487c.209-.541.355-1.159.395-2.062.04-.907.05-1.196.05-3.504s-.003-2.597-.043-3.504zm-1.531 6.941c-.037.83-.176 1.279-.292 1.577a2.82 2.82 0 0 1-1.614 1.614c-.299.116-.75.256-1.578.292-.897.04-1.166.05-3.434.05s-2.541-.01-3.434-.05c-.83-.036-1.279-.176-1.577-.292a2.609 2.609 0 0 1-.976-.634 2.649 2.649 0 0 1-.634-.976c-.116-.299-.256-.751-.292-1.577-.04-.897-.05-1.166-.05-3.434s.01-2.541.05-3.434c.036-.83.176-1.279.292-1.577a2.57 2.57 0 0 1 .638-.976c.276-.282.608-.498.976-.634.299-.116.751-.256 1.577-.292.897-.04 1.166-.05 3.434-.05 2.272 0 2.54.01 3.434.05.83.037 1.279.176 1.577.292.369.136.704.352.976.634.282.276.498.608.634.976.116.299.256.75.292 1.577.04.897.05 1.166.05 3.434s-.01 2.534-.05 3.431z"/><path d="M8.532 4.135a4.368 4.368 0 0 0 0 8.734 4.368 4.368 0 0 0 0-8.734zm0 7.199a2.834 2.834 0 1 1 .002-5.668 2.834 2.834 0 0 1-.002 5.668zM14.091 3.962a1.02 1.02 0 1 1-2.04 0 1.02 1.02 0 0 1 2.04 0z"/></symbol><symbol id="icon-linkedin" viewBox="0 0 17 17"><path d="M16.996 17v-.001H17v-6.235c0-3.05-.657-5.4-4.222-5.4-1.714 0-2.864.941-3.334 1.832h-.05V5.648H6.013v11.35h3.52v-5.62c0-1.48.28-2.911 2.113-2.911 1.805 0 1.832 1.689 1.832 3.005v5.526h3.517zM.28 5.65h3.525V17H.28V5.65zM2.041 0C.914 0 0 .914 0 2.041s.914 2.061 2.041 2.061c1.127 0 2.041-.934 2.041-2.061S3.167 0 2.041 0z"/></symbol><symbol id="icon-twitter" viewBox="0 0 17 17"><path d="M17 3.229a7.268 7.268 0 0 1-2.008.55 3.465 3.465 0 0 0 1.533-1.926 6.973 6.973 0 0 1-2.21.844A3.484 3.484 0 0 0 8.286 5.08c0 .276.023.542.081.795A9.868 9.868 0 0 1 1.183 2.23a3.49 3.49 0 0 0 1.071 4.658 3.45 3.45 0 0 1-1.575-.429v.038a3.5 3.5 0 0 0 2.792 3.424 3.463 3.463 0 0 1-.914.115c-.223 0-.448-.013-.66-.059a3.52 3.52 0 0 0 3.257 2.428 7 7 0 0 1-4.321 1.486c-.286 0-.56-.013-.834-.048a9.807 9.807 0 0 0 5.346 1.564c6.413 0 9.919-5.313 9.919-9.917a8.24 8.24 0 0 0-.013-.45 6.959 6.959 0 0 0 1.747-1.809z"/></symbol></defs></svg>