<svg aria-hidden="true" style="position: absolute; width: 0; height: 0; overflow: hidden;" version="1.1" xmlns="http://www.w3.org/2000/svg" xmlns:xlink="http://www.w3.org/1999/xlink">
<defs>
<symbol id="icon-Logo-1" viewBox="0 0 39 32">
<path d="M16.286 3.829l0.057 0.343-2.743 0.629-0.914-3.886 2.686-0.571 0.057 0.343-2.286 0.514 0.343 1.371 2-0.457 0.114 0.343-2.057 0.457 0.343 1.429 2.4-0.571zM20.229 4l-0.971-1.314c-0.051 0.003-0.111 0.005-0.171 0.005s-0.12-0.002-0.18-0.006l0.008 0h-1.086l0.057 1.314h-0.4l-0.171-4h1.543c0.457 0 0.857 0.057 1.2 0.343 0.28 0.232 0.457 0.58 0.457 0.97 0 0.001 0 0.001 0 0.002v-0c0 0.286 0 0.571-0.171 0.8s-0.4 0.4-0.686 0.514l1.029 1.314h-0.514zM19.771 2.057c0.21-0.169 0.343-0.426 0.343-0.714 0-0.010-0-0.020-0-0.030l0 0.001c0-0.009 0-0.019 0-0.029 0-0.288-0.133-0.545-0.342-0.713l-0.002-0.001c-0.286-0.171-0.571-0.229-0.914-0.229l-1.086 0.057 0.057 2h1.086c0.286 0 0.629-0.114 0.857-0.343zM23.2 2.857l-0.171 1.429-0.457-0.114 0.286-1.314-1.143-2.857 0.4 0.057 1.029 2.457 1.714-2.057 0.4 0.114-2 2.286zM22.343 9.657l-0.743-0.571c-0.099-0.085-0.229-0.137-0.371-0.137-0.171 0-0.324 0.075-0.428 0.193l-0.001 0.001-10.286 11.886 0.114 0.171 2.514-2.343c-0.118-0.071-0.196-0.198-0.196-0.344 0-0.209 0.161-0.381 0.366-0.399l0.001-0c0.151 0.007 0.28 0.098 0.342 0.226l0.001 0.002 3.429-3.086c0.047-0.036 0.107-0.057 0.171-0.057s0.124 0.021 0.172 0.058l-0.001-0.001 0.171 0.114c0.039 0.021 0.085 0.033 0.134 0.033 0.082 0 0.156-0.035 0.209-0.090l0-0 4.457-4.971c0.080-0.082 0.129-0.194 0.129-0.318 0-0.15-0.073-0.284-0.185-0.367l-0.001-0.001z"></path>
<path d="M27.257 12.971c-2.286 1.657-4.8 2.857-7.543 3.543-2.389 0.632-5.167 1.061-8.023 1.197l-0.092 0.003c0 0.4 0.171 0.8 0.286 1.143 1.543 1.429 13.257-0.971 15.543-3.714 0.514-0.571-0.171-2.171-0.171-2.171zM13.314 18.857c-0.204-0.020-0.362-0.191-0.362-0.398 0-0.221 0.179-0.4 0.4-0.4s0.4 0.179 0.4 0.4c0 0.062-0.014 0.12-0.039 0.172l0.001-0.002c-0.063 0.131-0.192 0.221-0.342 0.229l-0.001 0zM2.286 12.171l0.114-0.4 1.486 0.343c0.114 0.229 0.171 0.457 0.171 0.743 0.008 0.075 0.013 0.162 0.013 0.251 0 0.577-0.199 1.107-0.531 1.526l0.004-0.005c-0.229 0.286-0.571 0.457-0.857 0.571-0.193 0.066-0.415 0.104-0.645 0.104-0.547 0-1.044-0.214-1.413-0.562l0.001 0.001c-0.286-0.229-0.457-0.571-0.571-0.914v-1.143l0.343-0.686c0.145-0.235 0.337-0.427 0.564-0.567l0.007-0.004 0.229 0.343c-0.392 0.254-0.667 0.661-0.742 1.133l-0.001 0.009c-0.114 0.229-0.114 0.571 0 0.857 0.057 0.286 0.229 0.571 0.457 0.743 0.171 0.171 0.457 0.343 0.743 0.4s0.571 0.057 0.914 0c0.574-0.191 1.007-0.661 1.141-1.246l0.002-0.012c0.032-0.123 0.050-0.265 0.050-0.411 0-0.266-0.061-0.518-0.169-0.742l0.004 0.010-1.314-0.286zM5.543 8.571l-1.371 1.771 0.571 1.029-0.229 0.343-2.114-3.829 0.229-0.343 4.286 0.914-0.229 0.343-1.143-0.229zM5.143 8.457l-2.286-0.457 1.143 2.057 1.143-1.543zM5.143 4.914l0.343-0.286 2.171 2.914 1.829-1.314 0.171 0.286-2.114 1.6-2.4-3.2zM8.743 2.514l0.4-0.229 1.486 3.314 2.057-0.971 0.114 0.343-2.4 1.143-1.657-3.657zM28.857 2.629l0.514 0.686-0.229 0.171-0.514-0.686-0.286 0.743-0.229-0.114 0.286-0.743-0.8 0.114v-0.286l0.8-0.057-0.514-0.629 0.229-0.171 0.457 0.629 0.286-0.743 0.286 0.114-0.286 0.743 0.8-0.114v0.286l-0.8 0.057zM30.8 7.257c-0.171-0.229-0.229-0.457-0.286-0.686l0.343-0.171c0 0.229 0.114 0.457 0.229 0.686l0.514 0.571c0.171 0.171 0.457 0.286 0.743 0.343 0.025 0.004 0.053 0.006 0.082 0.006 0.257 0 0.474-0.169 0.546-0.402l0.001-0.004v-0.229c0-0.114 0-0.286-0.114-0.4l-0.343-0.514c-0.136-0.167-0.268-0.354-0.387-0.549l-0.013-0.023c-0.102-0.163-0.165-0.359-0.171-0.57l-0-0.002c0-0.229 0.057-0.4 0.229-0.571 0.114-0.171 0.286-0.286 0.457-0.343 0.094-0.028 0.202-0.044 0.314-0.044s0.22 0.016 0.322 0.046l-0.008-0.002c0.286 0.114 0.571 0.229 0.743 0.4l0.457 0.571 0.286 0.571-0.343 0.114c0-0.171-0.114-0.343-0.229-0.571l-0.457-0.343c-0.171-0.171-0.457-0.343-0.743-0.343-0.032-0.006-0.069-0.010-0.107-0.010-0.191 0-0.36 0.093-0.463 0.237l-0.001 0.002c-0.047 0.076-0.075 0.168-0.075 0.267 0 0.047 0.006 0.093 0.018 0.137l-0.001-0.004c0 0.114 0 0.286 0.114 0.4l0.343 0.514 0.4 0.571c0.114 0.171 0.171 0.4 0.171 0.571 0 0.229-0.057 0.4-0.229 0.571-0.114 0.171-0.286 0.286-0.457 0.343-0.094 0.028-0.202 0.044-0.314 0.044s-0.22-0.016-0.322-0.046l0.008 0.002c-0.286-0.114-0.571-0.229-0.743-0.457-0.229-0.171-0.457-0.4-0.571-0.686zM36.571 8.114l-0.857-1.143 0.286-0.229 1.886 2.629-0.286 0.229-0.8-1.143-3.029 2.114-0.229-0.343 2.971-2.114zM35.257 12.8c0.114-0.343 0.286-0.686 0.571-0.914s0.571-0.4 0.914-0.457h1.143c0.687 0.261 1.191 0.86 1.313 1.588l0.002 0.012c0.050 0.164 0.079 0.353 0.079 0.549 0 0.576-0.251 1.093-0.649 1.449l-0.002 0.002c-0.375 0.343-0.876 0.553-1.426 0.553-0.225 0-0.442-0.035-0.646-0.1l0.015 0.004c-0.343-0.114-0.629-0.343-0.857-0.571-0.229-0.286-0.4-0.629-0.514-1.029v-1.143zM36 14.629c0.171 0.229 0.457 0.343 0.743 0.457 0.139 0.039 0.299 0.062 0.464 0.062 0.46 0 0.879-0.175 1.194-0.463l-0.001 0.001c0.31-0.292 0.503-0.706 0.503-1.164 0-0.134-0.017-0.265-0.048-0.39l0.002 0.011c-0.057-0.286-0.229-0.571-0.4-0.743-0.229-0.229-0.457-0.4-0.743-0.514-0.129-0.035-0.276-0.054-0.429-0.054s-0.3 0.020-0.441 0.057l0.012-0.003c-0.286 0.057-0.571 0.229-0.8 0.4-0.229 0.229-0.343 0.457-0.457 0.743-0.035 0.129-0.054 0.276-0.054 0.429s0.020 0.3 0.057 0.441l-0.003-0.012c0.057 0.286 0.229 0.571 0.4 0.8zM34.857 19.429l1.429-0.571 0.057-0.343 0.286-1.029-1.2-0.286 0.114-0.4 3.886 1.029-0.4 1.429c-0.114 0.457-0.343 0.8-0.686 1.086-0.201 0.141-0.45 0.226-0.719 0.226-0.131 0-0.257-0.020-0.375-0.057l0.009 0.002c-0.561-0.134-0.972-0.631-0.972-1.224 0-0.012 0-0.023 0-0.035l-0 0.002-1.6 0.571 0.114-0.4zM36.743 19.6c0.183 0.302 0.509 0.5 0.882 0.5 0.202 0 0.391-0.058 0.55-0.16l-0.004 0.003c0.229-0.171 0.4-0.457 0.457-0.8l0.286-1.029-1.943-0.514-0.286 1.029v0.971zM32.743 23.086l-0.286-0.171 1.714-2.286 3.2 2.4-1.657 2.229-0.286-0.229 1.429-1.886-1.143-0.857-1.257 1.714-0.286-0.286 1.257-1.6-1.143-0.914-1.543 1.886zM31.429 27.657h-0.8v-0.229h0.8l-0.457-0.686 0.229-0.114 0.457 0.686 0.343-0.8 0.229 0.114-0.343 0.743h0.8v0.229h-0.857l0.457 0.686-0.229 0.171-0.457-0.686-0.343 0.743-0.229-0.171 0.4-0.686zM24 27.2l0.686 0.4c0.233-0.451 0.64-0.784 1.131-0.912l0.012-0.003c0.229-0.057 0.457-0.114 0.686-0.057 0.229 0 0.4 0.057 0.571 0.171s0.286 0.286 0.343 0.457v0.743c-0.15 0.309-0.342 0.574-0.571 0.8l-0 0 0.514 0.4 0.229 0.4c0.008 0.042 0.013 0.090 0.013 0.139 0 0.188-0.070 0.36-0.185 0.491l0.001-0.001c-0.149 0.218-0.366 0.38-0.62 0.455l-0.008 0.002c-0.229 0.114-0.514 0.114-0.743 0-0.203-0.101-0.351-0.287-0.399-0.509l-0.001-0.005v-0.571l0.571-0.686-1.371-0.743v0.8h-0.4c0-0.343 0-0.686 0.114-0.971l-0.743-0.4 0.171-0.343zM24.971 27.771l1.543 0.857c0.171-0.229 0.343-0.4 0.457-0.686v-0.514c-0.055-0.195-0.205-0.345-0.396-0.399l-0.004-0.001c-0.102-0.033-0.22-0.053-0.343-0.053s-0.24 0.019-0.351 0.055l0.008-0.002c-0.407 0.101-0.736 0.374-0.911 0.735l-0.004 0.008zM27.143 30.057c0.026-0.059 0.040-0.128 0.040-0.2s-0.015-0.141-0.042-0.203l0.001 0.003c0-0.114 0-0.229-0.114-0.343l-0.514-0.286-0.457 0.571c-0.023 0.059-0.036 0.128-0.036 0.2s0.013 0.141 0.037 0.204l-0.001-0.004c0.018 0.148 0.105 0.272 0.226 0.342l0.002 0.001h0.457l0.4-0.286zM17.029 31.6l0.057-4h0.457l-0.057 3.2 1.6-2.629h0.171l1.543 2.686 0.057-3.2h0.4l-0.057 4h-0.343l-1.714-2.971-1.714 2.914h-0.4zM15.029 27.429c0.4 0.357 0.651 0.875 0.651 1.451 0 0.196-0.029 0.385-0.083 0.563l0.004-0.014c-0.114 0.343-0.343 0.629-0.571 0.914-0.286 0.229-0.571 0.4-0.914 0.514h-1.143c-0.343-0.114-0.686-0.343-0.914-0.571-0.286-0.229-0.457-0.571-0.571-0.914-0.035-0.144-0.055-0.309-0.055-0.479 0-0.963 0.644-1.776 1.526-2.031l0.015-0.004h1.143c0.343 0.114 0.686 0.286 0.914 0.571zM13.086 27.257c-0.286 0-0.571 0.171-0.743 0.4-0.171 0.171-0.343 0.457-0.4 0.743-0.114 0.286-0.114 0.571 0 0.857 0 0.286 0.171 0.571 0.4 0.743 0.311 0.317 0.744 0.513 1.223 0.513 0.154 0 0.304-0.020 0.446-0.059l-0.012 0.003c0.56-0.15 0.993-0.583 1.14-1.132l0.003-0.011c0.042-0.138 0.066-0.297 0.066-0.462 0-0.756-0.506-1.393-1.197-1.592l-0.012-0.003c-0.286-0.114-0.571-0.114-0.914 0zM8.743 24.571l0.171 1.6 0.286 0.114 0.914 0.571 0.686-1.143 0.343 0.229-2 3.429-1.314-0.743c-0.4-0.171-0.686-0.571-0.857-0.914-0.055-0.136-0.087-0.295-0.087-0.46 0-0.254 0.075-0.49 0.204-0.688l-0.003 0.005 0.571-0.571h0.914l-0.171-1.714 0.457 0.286zM8.171 26.4c-0.476 0.096-0.83 0.511-0.83 1.009 0 0.088 0.011 0.173 0.032 0.255l-0.002-0.007c0.171 0.286 0.4 0.571 0.686 0.686l0.914 0.571 0.971-1.714-0.914-0.571c-0.229-0.171-0.571-0.286-0.914-0.286zM5.371 21.886l0.286-0.229 1.943 2-2.857 2.8-1.886-1.943 0.286-0.286 1.6 1.714 0.971-1.029-1.429-1.486 0.286-0.286 1.429 1.486 1.086-1.029-1.714-1.714zM1.143 19.657l0.114-0.8h0.286l-0.171 0.857 0.8-0.286 0.057 0.229-0.743 0.286 0.571 0.571-0.114 0.171-0.629-0.571-0.171 0.8h-0.229l0.114-0.857-0.743 0.286-0.057-0.229 0.743-0.286-0.629-0.514 0.171-0.229 0.629 0.571z"></path>
</symbol>
<symbol id="icon-phone" viewBox="0 0 32 32">
<path stroke-linejoin="round" stroke-linecap="round" stroke-miterlimit="4" stroke-width="1.3333" d="M26.667 21.333v3.2c0 0.005 0 0.011 0 0.017 0 1.178-0.955 2.133-2.133 2.133-0.094 0-0.187-0.006-0.277-0.018l0.011 0.001c-6.581-0.763-12.177-4.422-15.549-9.649l-0.051-0.084c-1.751-2.652-2.941-5.822-3.324-9.236l-0.009-0.097c-0.003-0.040-0.004-0.086-0.004-0.133 0-1.178 0.955-2.133 2.133-2.133 0.001 0 0.003 0 0.004 0h3.2c1.067 0 2 0.8 2.133 1.867s0.4 2 0.8 2.933c0.267 0.8 0 1.733-0.533 2.267l-1.333 1.333c1.6 2.667 3.733 4.933 6.4 6.533l1.333-1.333c0.667-0.667 1.6-0.8 2.4-0.533 0.933 0.4 1.867 0.667 2.933 0.8 1.067 0 1.867 1.067 1.867 2.133z"></path>
</symbol>
<symbol id="icon-map-pin" viewBox="0 0 32 32">
<path stroke-linejoin="round" stroke-linecap="round" stroke-miterlimit="4" stroke-width="1.3333" d="M26.667 13.333c0 8-10.667 14.667-10.667 14.667s-10.667-6.667-10.667-14.667c0-5.333 5.333-9.333 10.667-9.333s10.667 4 10.667 9.333v0z"></path>
<path stroke-linejoin="round" stroke-linecap="round" stroke-miterlimit="4" stroke-width="1.3333" d="M16 18.667c2.209 0 4-1.791 4-4s-1.791-4-4-4v0c-2.209 0-4 1.791-4 4s1.791 4 4 4v0z"></path>
</symbol>
<symbol id="icon-mail" viewBox="0 0 32 32">
<path stroke-linejoin="round" stroke-linecap="round" stroke-miterlimit="4" stroke-width="1.3333" d="M6.4 6.667h19.2c1.333 0 2.4 1.067 2.4 2.4v13.867c0 1.333-1.067 2.4-2.4 2.4h-19.2c-1.333 0-2.4-1.067-2.4-2.4v-13.867c0-1.333 1.067-2.4 2.4-2.4z"></path>
<path stroke-linejoin="round" stroke-linecap="round" stroke-miterlimit="4" stroke-width="1.3333" d="M26.667 9.333l-10.667 8-10.667-8"></path>
</symbol>
</defs>
</svg>
